<?xml version="1.0" encoding="UTF-8"?>
<svg viewBox="0 0 352 80" version="1.1" xmlns="http://www.w3.org/2000/svg" xmlns:xlink="http://www.w3.org/1999/xlink">
    <g id="Artboard" stroke="none" stroke-width="1" fill="none" fill-rule="evenodd">
        <path d="M115.881896,41.1206466 C118.263476,41.1206466 120.341365,40.5233567 122.115563,39.3287769 C123.88976,38.1341971 125.264363,36.5095685 126.239373,34.4548912 C127.214382,32.400214 127.701887,30.0827291 127.701887,27.5024367 C127.701887,24.8902888 127.20639,22.5608582 126.215397,20.5141448 C125.224404,18.4674314 123.829821,16.8507667 122.031648,15.6641507 C120.233475,14.4775348 118.111631,13.8842268 115.666115,13.8842268 C113.204616,13.8842268 111.138715,14.4775348 109.468412,15.6641507 L109.468412,15.6641507 L109.216668,15.8503061 L109.216668,6 L103.390587,6 L103.390587,40.4038987 L108.497399,40.4038987 L108.497399,38.5094942 L108.611002,38.6110491 C108.80493,38.7807167 109.005476,38.9436027 109.212641,39.0997069 L109.528351,39.3287769 C111.238614,40.5233567 113.356462,41.1206466 115.881896,41.1206466 Z M114.994797,35.9600618 C113.444373,35.9600618 112.193643,35.6056698 111.24261,34.8968858 C110.291576,34.1881017 109.596282,33.1966005 109.156729,31.922382 C108.717175,30.6481636 108.497399,29.1748484 108.497399,27.5024367 C108.497399,25.8140972 108.717175,24.3368002 109.156729,23.0705456 C109.596282,21.804291 110.279588,20.8167717 111.206646,20.1079876 C112.133704,19.3992036 113.332486,19.0448116 114.802992,19.0448116 C116.353417,19.0448116 117.632118,19.4230952 118.639095,20.1796624 C119.646072,20.9362296 120.389316,21.9556044 120.868829,23.2377868 C121.348342,24.5199691 121.588098,25.9415191 121.588098,27.5024367 C121.588098,29.0792821 121.352338,30.5087959 120.880817,31.7909782 C120.409296,33.0731606 119.686031,34.0885534 118.711022,34.8371568 C117.736012,35.5857601 116.497271,35.9600618 114.994797,35.9600618 Z M156.622504,29.1031737 C156.846276,26.0131939 156.502625,23.3293712 155.591551,21.0517057 C154.680477,18.7740402 153.285894,17.010044 151.407802,15.7597171 C149.52971,14.5093902 147.248028,13.8842268 144.562756,13.8842268 C142.021338,13.8842268 139.783612,14.4576251 137.849577,15.6044217 C135.915542,16.7512184 134.405076,18.3639011 133.318181,20.44247 C132.231285,22.5210389 131.687837,24.9699275 131.687837,27.7891359 C131.687837,30.4012837 132.243273,32.7108047 133.354144,34.7176988 C134.465016,36.7245929 136.011444,38.2934744 137.993431,39.4243433 C139.975417,40.5552122 142.277078,41.1206466 144.898415,41.1206466 C147.391882,41.1206466 149.673564,40.4755735 151.743461,39.1854273 C153.813358,37.8952811 155.343803,36.0874837 156.334796,33.7620349 L156.334796,33.7620349 L150.628593,32.04184 C150.069162,33.2364198 149.27397,34.1482824 148.243017,34.7774278 C147.212065,35.4065732 145.985311,35.7211458 144.562756,35.7211458 C142.356997,35.7211458 140.678702,35.004398 139.527872,33.5709022 C138.664749,32.4957803 138.125297,31.0891626 137.909516,29.351049 L137.881544,29.1031737 L153.793378,29.1031737 L156.622504,29.1031737 Z M150.756463,24.7549031 L138.0234,24.7549031 L138.052147,24.591671 C138.302668,23.2827799 138.741079,22.1936265 139.367382,21.3242107 L139.527872,21.1114347 C140.678702,19.6540473 142.436916,18.9253536 144.802513,18.9253536 C146.896385,18.9253536 148.430826,19.5704267 149.405836,20.8605729 C150.055842,21.7206704 150.492731,22.91702 150.716504,24.4496216 L150.756463,24.7549031 Z M170.486418,51.871865 L184.919754,14.6009747 L179.141624,14.6009747 L172.106772,33.0661922 L164.876118,14.6009747 L158.858232,14.6009747 L169.325597,40.2237163 L165.067923,51.871865 L170.486418,51.871865 Z M199.119327,41.1206466 C201.708696,41.1206466 203.970398,40.5432664 205.904433,39.3885059 C207.838468,38.2337454 209.344938,36.6330084 210.423841,34.586295 C211.502745,32.5395816 212.042197,30.1782955 212.042197,27.5024367 C212.042197,24.8425056 211.506741,22.4891834 210.435829,20.44247 C209.364917,18.3957566 207.862444,16.7910377 205.928409,15.6283133 C203.994374,14.465589 201.72468,13.8842268 199.119327,13.8842268 C196.577909,13.8842268 194.340182,14.4576251 192.406147,15.6044217 C190.472112,16.7512184 188.961647,18.3439914 187.874751,20.382741 C186.787856,22.4214906 186.244408,24.7947225 186.244408,27.5024367 C186.244408,30.1623678 186.775868,32.51569 187.838788,34.5624034 C188.901708,36.6091168 190.400185,38.2138357 192.33422,39.3765601 C194.268255,40.5392844 196.529958,41.1206466 199.119327,41.1206466 Z M199.119327,35.7211458 C196.897584,35.7211458 195.215293,34.9765244 194.072454,33.4872816 C192.929616,31.9980387 192.358196,30.0030905 192.358196,27.5024367 C192.358196,25.8778082 192.597952,24.4482943 193.077465,23.2138952 C193.556978,21.979496 194.296227,21.0158683 195.295212,20.323012 C196.294197,19.6301557 197.568902,19.2837276 199.119327,19.2837276 C201.389021,19.2837276 203.091291,20.028349 204.226138,21.5175918 C205.360985,23.0068347 205.928409,25.001783 205.928409,27.5024367 C205.928409,29.9234518 205.368977,31.8984904 204.250114,33.4275526 C203.131251,34.9566148 201.420988,35.7211458 199.119327,35.7211458 Z M223.268791,40.4038987 L223.268791,27.1440628 C223.268791,25.5672174 223.444612,24.2730893 223.796255,23.2616784 C224.147898,22.2502674 224.615423,21.4538809 225.19883,20.8725187 C225.782237,20.2911565 226.433575,19.8810175 227.152845,19.6421015 C227.872114,19.4031855 228.599375,19.2837276 229.334628,19.2837276 C230.709231,19.2837276 231.800123,19.5783906 232.607303,20.1677166 C233.414483,20.7570427 234.021866,21.509628 234.429452,22.4254725 C234.837038,23.341317 235.096774,24.2929989 235.20866,25.2805182 C235.320546,26.2680376 235.376489,27.1679544 235.376489,27.9802686 L235.376489,27.9802686 L235.376489,40.4038987 L241.226546,40.4038987 L241.226546,25.9972661 C241.226546,25.3760846 241.174599,24.5677523 241.070704,23.5722691 C240.96681,22.5767859 240.739041,21.5215738 240.387398,20.4066326 C240.035756,19.2916914 239.492308,18.2404612 238.757055,17.2529419 C238.021802,16.2654226 237.030809,15.4531083 235.784075,14.815999 C234.537342,14.1788898 232.95495,13.8603352 231.036899,13.8603352 C228.607367,13.8603352 226.561446,14.3899322 224.899134,15.4491264 C224.012569,16.0140299 223.240802,16.6820035 222.583833,17.4530473 L222.573497,17.4659753 L222.573497,14.6009747 L217.418735,14.6009747 L217.418735,40.4038987 L223.268791,40.4038987 Z M257.583927,41.1206466 C260.109361,41.1206466 262.227209,40.5233567 263.937472,39.3287769 C264.258146,39.1047932 264.563929,38.8655506 264.854821,38.6110491 L264.968424,38.5084988 L264.968424,40.4038987 L270.075236,40.4038987 L270.075236,6 L264.249155,6 L264.249155,15.8503061 L263.997411,15.6641507 C262.419902,14.5434579 260.48953,13.9519811 258.206294,13.8897204 L257.799707,13.8842268 C255.354192,13.8842268 253.228352,14.4775348 251.422187,15.6641507 C249.616022,16.8507667 248.221439,18.4674314 247.238438,20.5141448 C246.255436,22.5608582 245.763936,24.8902888 245.763936,27.5024367 C245.763936,30.0827291 246.251441,32.400214 247.22645,34.4548912 C248.201459,36.5095685 249.576063,38.1341971 251.35026,39.3287769 C253.124458,40.5233567 255.202346,41.1206466 257.583927,41.1206466 Z M258.471025,35.9600618 C256.968552,35.9600618 255.729811,35.5857601 254.754801,34.8371568 C253.779792,34.0885534 253.056527,33.0731606 252.585006,31.7909782 C252.113485,30.5087959 251.877724,29.0792821 251.877724,27.5024367 C251.877724,25.9415191 252.117481,24.5199691 252.596993,23.2377868 C253.076506,21.9556044 253.819751,20.9362296 254.826728,20.1796624 C255.833705,19.4230952 257.112406,19.0448116 258.662831,19.0448116 C260.133337,19.0448116 261.332119,19.3992036 262.259177,20.1079876 C263.186235,20.8167717 263.869541,21.804291 264.309094,23.0705456 C264.748647,24.3368002 264.968424,25.8140972 264.968424,27.5024367 C264.968424,29.1748484 264.748647,30.6481636 264.309094,31.922382 C263.869541,33.1966005 263.174247,34.1881017 262.223213,34.8968858 C261.272179,35.6056698 260.02145,35.9600618 258.471025,35.9600618 Z M114.683114,72.9761084 C117.576175,72.9761084 120.02169,72.2713063 122.01966,70.8617021 C124.01763,69.4520979 125.416209,67.4332581 126.215397,64.8051825 L126.215397,64.8051825 L120.31739,63.4911447 C119.869844,64.8131463 119.202522,65.8245572 118.315424,66.5253774 C117.428325,67.2261976 116.217555,67.5766076 114.683114,67.5766076 C112.509323,67.5766076 110.870987,66.8200404 109.768108,65.306906 C108.665228,63.7937715 108.113788,61.810769 108.113788,59.3578985 C108.113788,57.7810531 108.345553,56.3714489 108.809082,55.1290859 C109.272611,53.8867229 109.99188,52.9111494 110.96689,52.2023654 C111.941899,51.4935814 113.18064,51.1391893 114.683114,51.1391893 C116.009766,51.1391893 117.192564,51.5254368 118.231509,52.2979318 C119.270453,53.0704267 120.013698,54.1495305 120.461243,55.5352431 L120.461243,55.5352431 L126.215397,53.9822893 C125.59203,51.4338524 124.261382,49.4229763 122.223453,47.9496612 C120.185524,46.4763461 117.696053,45.7396886 114.755041,45.7396886 C112.133704,45.7396886 109.872002,46.3250327 107.969935,47.4957209 C106.067867,48.6664091 104.601357,50.2751099 103.570404,52.3218234 C102.539452,54.3685368 102.015984,56.7138952 102,59.3578985 C102.015984,61.9541186 102.523468,64.2795673 103.522453,66.3342446 C104.521438,68.3889219 105.963973,70.0095685 107.850056,71.1961845 C109.73614,72.3828004 112.013826,72.9761084 114.683114,72.9761084 Z M140.894483,73 C143.324015,73 145.369936,72.4704029 147.032247,71.4112088 C147.918813,70.8463053 148.69058,70.1783317 149.347548,69.4072879 L149.357884,69.3943599 L149.357884,72.2593605 L154.464696,72.2593605 L154.464696,46.4564365 L148.662591,46.4564365 L148.662591,59.7162724 C148.662591,61.2771901 148.486769,62.5673363 148.135127,63.586711 C147.783484,64.6060858 147.315959,65.4064543 146.732552,65.9878165 C146.149144,66.5691787 145.497806,66.9793177 144.778537,67.2182337 C144.059268,67.4571496 143.332007,67.5766076 142.596754,67.5766076 C141.22215,67.5766076 140.131259,67.2819446 139.324079,66.6926186 C138.516899,66.1032925 137.909516,65.3507072 137.50193,64.4348627 C137.094344,63.5190182 136.834608,62.5633543 136.722722,61.5678712 C136.610835,60.572388 136.554892,59.6764531 136.554892,58.8800666 L136.554892,58.8800666 L136.554892,46.4564365 L130.704836,46.4564365 L130.704836,60.8630691 C130.704836,61.4842506 130.756783,62.2925829 130.860678,63.2880661 C130.964572,64.2835493 131.192341,65.3387614 131.543983,66.4537026 C131.895626,67.5686438 132.439074,68.619874 133.174327,69.6073933 C133.90958,70.5949126 134.900573,71.4072269 136.147306,72.0443361 C137.39404,72.6814454 138.976432,73 140.894483,73 Z M167.129828,72.2593605 L167.129828,59.1428741 C167.129828,58.1553548 167.249706,57.2355283 167.489463,56.3833947 C167.729219,55.5312611 168.100842,54.770712 168.60433,54.1017473 C169.107818,53.4327826 169.759157,52.8832759 170.558345,52.4532271 C171.357533,51.9753952 172.256619,51.6966599 173.255604,51.6170213 C174.254589,51.5373826 175.137692,51.6090574 175.904913,51.8320456 L175.904913,51.8320456 L175.904913,46.4564365 C175.137692,46.3290146 174.346496,46.2931772 173.531324,46.3489243 C172.716152,46.4046713 171.92096,46.5559848 171.145748,46.8028646 C170.370536,47.0497444 169.663254,47.3882087 169.023904,47.8182575 C168.272667,48.2801617 167.629321,48.8655058 167.093865,49.5742898 C166.864384,49.8780544 166.654719,50.1957151 166.464871,50.5272719 L166.434535,50.5827143 L166.434535,46.4564365 L161.327723,46.4564365 L161.327723,72.2593605 L167.129828,72.2593605 Z M186.412237,72.2593605 L186.412237,59.1428741 C186.412237,58.1553548 186.532115,57.2355283 186.771872,56.3833947 C187.011628,55.5312611 187.383251,54.770712 187.886739,54.1017473 C188.390228,53.4327826 189.041566,52.8832759 189.840754,52.4532271 C190.639942,51.9753952 191.539028,51.6966599 192.538013,51.6170213 C193.536998,51.5373826 194.420101,51.6090574 195.187322,51.8320456 L195.187322,51.8320456 L195.187322,46.4564365 C194.420101,46.3290146 193.628905,46.2931772 192.813733,46.3489243 C191.998561,46.4046713 191.203369,46.5559848 190.428157,46.8028646 C189.652945,47.0497444 188.945663,47.3882087 188.306313,47.8182575 C187.555076,48.2801617 186.91173,48.8655058 186.376274,49.5742898 C186.146793,49.8780544 185.937128,50.1957151 185.74728,50.5272719 L185.716944,50.5827143 L185.716944,46.4564365 L180.610132,46.4564365 L180.610132,72.2593605 L186.412237,72.2593605 Z M206.150183,42.5382147 L206.150183,37.2581719 L200.372054,37.2581719 L200.372054,42.5382147 L206.150183,42.5382147 Z M206.150183,72.2593605 L206.150183,46.4564365 L200.372054,46.4564365 L200.372054,72.2593605 L206.150183,72.2593605 Z M224.737299,72.9761084 C227.63036,72.9761084 230.075875,72.2713063 232.073845,70.8617021 C234.071815,69.4520979 235.470394,67.4332581 236.269582,64.8051825 L236.269582,64.8051825 L230.371574,63.4911447 C229.924029,64.8131463 229.256707,65.8245572 228.369608,66.5253774 C227.48251,67.2261976 226.27174,67.5766076 224.737299,67.5766076 C222.563507,67.5766076 220.925172,66.8200404 219.822293,65.306906 C218.719413,63.7937715 218.167973,61.810769 218.167973,59.3578985 C218.167973,57.7810531 218.399738,56.3714489 218.863267,55.1290859 C219.326796,53.8867229 220.046065,52.9111494 221.021075,52.2023654 C221.996084,51.4935814 223.234825,51.1391893 224.737299,51.1391893 C226.063951,51.1391893 227.246749,51.5254368 228.285694,52.2979318 C229.324638,53.0704267 230.067883,54.1495305 230.515428,55.5352431 L230.515428,55.5352431 L236.269582,53.9822893 C235.646215,51.4338524 234.315567,49.4229763 232.277638,47.9496612 C230.239708,46.4763461 227.750238,45.7396886 224.809226,45.7396886 C222.187889,45.7396886 219.926187,46.3250327 218.024119,47.4957209 C216.122052,48.6664091 214.655542,50.2751099 213.624589,52.3218234 C212.593637,54.3685368 212.070169,56.7138952 212.054185,59.3578985 C212.070169,61.9541186 212.577653,64.2795673 213.576638,66.3342446 C214.575623,68.3889219 216.018158,70.0095685 217.904241,71.1961845 C219.790325,72.3828004 222.068011,72.9761084 224.737299,72.9761084 Z M250.948668,73 C253.3782,73 255.424121,72.4704029 257.086432,71.4112088 C257.972998,70.8463053 258.744765,70.1783317 259.401733,69.4072879 L259.412069,69.3943599 L259.412069,72.2593605 L264.518881,72.2593605 L264.518881,46.4564365 L258.716776,46.4564365 L258.716776,59.7162724 C258.716776,61.2771901 258.540954,62.5673363 258.189312,63.586711 C257.837669,64.6060858 257.370144,65.4064543 256.786737,65.9878165 C256.203329,66.5691787 255.551991,66.9793177 254.832722,67.2182337 C254.113453,67.4571496 253.386192,67.5766076 252.650939,67.5766076 C251.276335,67.5766076 250.185444,67.2819446 249.378264,66.6926186 C248.571084,66.1032925 247.963701,65.3507072 247.556115,64.4348627 C247.148529,63.5190182 246.888793,62.5633543 246.776907,61.5678712 C246.66502,60.572388 246.609077,59.6764531 246.609077,58.8800666 L246.609077,58.8800666 L246.609077,46.4564365 L240.759021,46.4564365 L240.759021,60.8630691 C240.759021,61.4842506 240.810968,62.2925829 240.914862,63.2880661 C241.018757,64.2835493 241.246526,65.3387614 241.598168,66.4537026 C241.949811,67.5686438 242.493259,68.619874 243.228512,69.6073933 C243.963765,70.5949126 244.954758,71.4072269 246.201491,72.0443361 C247.448225,72.6814454 249.030617,73 250.948668,73 Z M277.63955,72.2593605 L277.63955,37.1387139 L271.861421,37.1387139 L271.861421,72.2593605 L277.63955,72.2593605 Z M294.692225,73 C297.121756,73 299.167678,72.4704029 300.829989,71.4112088 C301.716555,70.8463053 302.488322,70.1783317 303.14529,69.4072879 L303.155626,69.3943599 L303.155626,72.2593605 L308.262437,72.2593605 L308.262437,46.4564365 L302.460332,46.4564365 L302.460332,59.7162724 C302.460332,61.2771901 302.284511,62.5673363 301.932868,63.586711 C301.581225,64.6060858 301.1137,65.4064543 300.530293,65.9878165 C299.946886,66.5691787 299.295548,66.9793177 298.576279,67.2182337 C297.857009,67.4571496 297.129748,67.5766076 296.394495,67.5766076 C295.019892,67.5766076 293.929,67.2819446 293.12182,66.6926186 C292.31464,66.1032925 291.707257,65.3507072 291.299672,64.4348627 C290.892086,63.5190182 290.63235,62.5633543 290.520463,61.5678712 C290.408577,60.572388 290.352634,59.6764531 290.352634,58.8800666 L290.352634,58.8800666 L290.352634,46.4564365 L284.502577,46.4564365 L284.502577,60.8630691 C284.502577,61.4842506 284.554525,62.2925829 284.658419,63.2880661 C284.762313,64.2835493 284.990082,65.3387614 285.341725,66.4537026 C285.693368,67.5686438 286.236815,68.619874 286.972068,69.6073933 C287.707321,70.5949126 288.698315,71.4072269 289.945048,72.0443361 C291.191781,72.6814454 292.774173,73 294.692225,73 Z M320.184325,46.4564365 L315.077513,46.4564365 L315.077513,72.2593605 L320.903594,72.2593605 L320.903594,56.3714489 C320.903594,54.7627481 321.347143,53.4566742 322.234242,52.4532271 C323.121341,51.4497801 324.300143,50.9480566 325.770649,50.9480566 C327.289106,50.9480566 328.487888,51.4497801 329.366995,52.4532271 C330.246102,53.4566742 330.685655,54.8583145 330.685655,56.6581481 L330.685655,56.6581481 L330.685655,72.2593605 L336.439809,72.2593605 L336.439809,56.3714489 C336.439809,55.2405801 336.65559,54.2650065 337.087151,53.4447284 C337.518713,52.6244503 338.10212,52.0032688 338.837373,51.5811839 C339.572626,51.159099 340.403782,50.9480566 341.33084,50.9480566 C342.833313,50.9480566 344.024104,51.4457982 344.90321,52.4412814 C345.782317,53.4367645 346.221871,54.8184952 346.221871,56.5864733 L346.221871,56.5864733 L346.221871,72.2593605 L352,72.2593605 L352,55.1290859 C352,52.341733 351.236775,50.091941 349.710326,48.37971 C348.183877,46.6674789 345.990106,45.8113634 343.129013,45.8113634 C341.402767,45.8113634 339.836358,46.1936289 338.429787,46.95816 C337.023216,47.7226911 335.908349,48.7858671 335.085185,50.1476881 L335.232036,49.9157405 L335.171302,49.8005286 C334.589118,48.7591313 333.80465,47.8996433 332.817897,47.2220646 L332.543768,47.0417806 C331.241091,46.2215024 329.622735,45.8113634 327.6887,45.8113634 C325.930487,45.8113634 324.344098,46.1976108 322.929536,46.9701058 C321.950223,47.50491 321.110721,48.1752177 320.411029,48.9810289 L320.184325,49.2527487 L320.184325,46.4564365 Z" id="beyondcurriculum" fill="#ffffff" fill-rule="nonzero"></path>
        <g id="Logo" fill="#ffffff">
            <path d="M40,40 L40,60 C40,71.045695 31.045695,80 20,80 C8.954305,80 0,71.045695 0,60 C0,48.954305 8.954305,40 20,40 L40,40 Z" id="Path"></path>
            <path d="M60,0 C71.045695,0 80,8.954305 80,20 C80,31.045695 71.045695,40 60,40 L40,40 L40,20 C40,8.954305 48.954305,0 60,0 Z M60,4.44444444 C51.5497415,4.44444444 44.6732245,11.1824326 44.4500359,19.578822 L44.4444444,20 L44.4444444,35.5555556 L60,35.5555556 C68.4502585,35.5555556 75.3267755,28.8175674 75.5499641,20.421178 L75.5555556,20 C75.5555556,11.4089039 68.5910961,4.44444444 60,4.44444444 Z" id="Path" fill-rule="nonzero"></path>
        </g>
    </g>
</svg>