<?xml version="1.0" encoding="UTF-8"?>
<svg width="339px" height="35px" viewBox="0 0 339 35" version="1.1" xmlns="http://www.w3.org/2000/svg" xmlns:xlink="http://www.w3.org/1999/xlink">
    <title>Group</title>
    <g id="Page-1" stroke="none" stroke-width="1" fill="none" fill-rule="evenodd">
        <g id="Artboard" transform="translate(-221.000000, -183.000000)" fill="#161616">
            <g id="Group" transform="translate(221.000000, 183.000000)">
                <path d="M198.489796,16.3888889 C199.518372,16.8703728 200.436731,17.5 201.244898,18.2777778 C201.942861,18.9444478 202.576528,19.7962911 203.145918,20.8333333 C203.715309,21.8703756 204,23.1666589 204,24.7222222 C204,26.1296367 203.724493,27.4536975 203.173469,28.6944444 C202.622446,29.9351914 201.841842,31.0185139 200.831633,31.9444444 C199.821424,32.870375 198.627558,33.6111083 197.25,34.1666667 C195.872442,34.722225 194.357151,35 192.704082,35 L177,35 L177,0 L191.877551,0 C193.457151,0 194.908157,0.259256667 196.230612,0.777777778 C197.553068,1.29629889 198.682648,2 199.619388,2.88888889 C200.556127,3.77778222 201.290814,4.80554972 201.823469,5.97222222 C202.356125,7.13889472 202.622449,8.38888222 202.622449,9.72222222 C202.622449,10.9074133 202.402043,11.9259217 201.961224,12.7777778 C201.520406,13.6296339 201.04286,14.3148122 200.528571,14.8333333 C199.904079,15.4629661 199.224493,15.9814794 198.489796,16.3888889 Z M185,14 L191.111111,14 C192.222228,14 193.148144,13.6500035 193.888889,12.95 C194.629633,12.2499965 195,11.433338 195,10.5 C195,9.566662 194.629633,8.7500035 193.888889,8.05 C193.148144,7.3499965 192.222228,7 191.111111,7 L185,7 L185,14 Z M191.707317,28 C192.923583,28 193.943085,27.600004 194.765854,26.8 C195.588622,26 196,25.066672 196,24 C196,22.933328 195.588622,22 194.765854,21.2 C193.943085,20.399996 192.923583,20 191.707317,20 L185,20 L185,28 L191.707317,28 Z M234,17 C234,15.5555483 233.763639,14.2222283 233.290909,13 C232.818179,11.7777717 232.172731,10.7222267 231.354545,9.83333333 C230.53636,8.94444 229.581824,8.2500025 228.490909,7.75 C227.399995,7.2499975 226.23637,7 225,7 C223.76363,7 222.600005,7.2499975 221.509091,7.75 C220.418176,8.2500025 219.46364,8.94444 218.645455,9.83333333 C217.827269,10.7222267 217.181821,11.7777717 216.709091,13 C216.236361,14.2222283 216,15.5555483 216,17 C216,18.4444517 216.236361,19.7777717 216.709091,21 C217.181821,22.2222283 217.827269,23.2777733 218.645455,24.1666667 C219.46364,25.05556 220.418176,25.7499975 221.509091,26.25 C222.600005,26.7500025 223.76363,27 225,27 C226.23637,27 227.399995,26.7500025 228.490909,26.25 C229.581824,25.7499975 230.53636,25.05556 231.354545,24.1666667 C232.172731,23.2777733 232.818179,22.2222283 233.290909,21 C233.763639,19.7777717 234,18.4444517 234,17 Z M242,17.5 C242,19.9791791 241.552155,22.2760311 240.656452,24.390625 C239.760748,26.5052189 238.545169,28.3554608 237.009677,29.9414063 C235.474186,31.5273517 233.673666,32.7669226 231.608065,33.6601562 C229.542463,34.5533899 227.339797,35 225,35 C222.660203,35 220.457537,34.5533899 218.391935,33.6601562 C216.326334,32.7669226 214.525814,31.5273517 212.990323,29.9414063 C211.454831,28.3554608 210.239252,26.5052189 209.343548,24.390625 C208.447845,22.2760311 208,19.9791791 208,17.5 C208,15.0572795 208.447845,12.7695419 209.343548,10.6367188 C210.239252,8.50389559 211.454831,6.64453918 212.990323,5.05859375 C214.525814,3.47264832 216.326334,2.23307738 218.391935,1.33984375 C220.457537,0.446610117 222.660203,0 225,0 C227.339797,0 229.542463,0.446610117 231.608065,1.33984375 C233.673666,2.23307738 235.474186,3.47264832 237.009677,5.05859375 C238.545169,6.64453918 239.760748,8.50389559 240.656452,10.6367188 C241.552155,12.7695419 242,15.0572795 242,17.5 Z M263,22 L259,10 L255,22 L263,22 Z M252.45,28.3333333 L250.25,35 L242,35 L254.375,0 L262.625,0 L275,35 L266.75,35 L264.55,28.3333333 L252.45,28.3333333 Z M291.909091,0 C293.690918,0 295.318174,0.296293333 296.790909,0.888888889 C298.263644,1.48148444 299.527267,2.27777278 300.581818,3.27777778 C301.636369,4.27778278 302.454543,5.45369694 303.036364,6.80555556 C303.618185,8.15741417 303.909091,9.592585 303.909091,11.1111111 C303.909091,13.0740839 303.572731,14.7222156 302.9,16.0555556 C302.227269,17.3888956 301.481822,18.4722181 300.663636,19.3055556 C299.84545,20.1388931 299.090913,20.7407389 298.4,21.1111111 L297.363636,21.6666667 L305,35 L296.272727,35 L290,23.3333333 L285.909091,23.3333333 L285.909091,35 L278,35 L278,0 L291.909091,0 Z M291.789474,16 C293.122814,16 294.157891,15.6190514 294.894737,14.8571429 C295.631583,14.0952343 296,13.1428629 296,12 C296,10.8571371 295.631583,9.90476571 294.894737,9.14285714 C294.157891,8.38094857 293.122814,8 291.789474,8 L286,8 L286,16 L291.789474,16 Z M321.791667,27 C323.091673,27 324.301383,26.7557167 325.420833,26.2671429 C326.540283,25.778569 327.515274,25.1180994 328.345833,24.2857143 C329.176393,23.4533292 329.826387,22.458101 330.295833,21.3 C330.76528,20.141899 331,18.875245 331,17.5 C331,16.1609457 330.76528,14.9033392 330.295833,13.7271429 C329.826387,12.5509465 329.176393,11.5466708 328.345833,10.7142857 C327.515274,9.8819006 326.540283,9.22143101 325.420833,8.73285714 C324.301383,8.24428327 323.091673,8 321.791667,8 L318,8 L318,27 L321.791667,27 Z M310,0 L321.764151,0 C324.17171,0 326.415084,0.453699167 328.49434,1.36111111 C330.573595,2.26852306 332.397476,3.51851056 333.966038,5.11111111 C335.534599,6.70371167 336.765719,8.555545 337.659434,10.6666667 C338.553149,12.7777883 339,15.0555433 339,17.5 C339,19.9444567 338.553149,22.2222117 337.659434,24.3333333 C336.765719,26.444455 335.534599,28.2962883 333.966038,29.8888889 C332.397476,31.4814894 330.573595,32.7314769 328.49434,33.6388889 C326.415084,34.5463008 324.17171,35 321.764151,35 L310,35 L310,0 Z" id="SCORE-BOARD"></path>
                <path d="M11.8518519,0 C13.5039364,0 15.0213174,0.271625782 16.4040404,0.814885496 C17.7867634,1.35814521 18.9809153,2.1151351 19.986532,3.08587786 C20.9921487,4.05662063 21.7732857,5.18765258 22.3299663,6.47900763 C22.886647,7.77036269 23.1649832,9.16411466 23.1649832,10.6603053 L17.9124579,10.6603053 C17.9124579,8.87912595 17.3512963,7.43193941 16.2289562,6.31870229 C15.1066162,5.20546517 13.647596,4.64885496 11.8518519,4.64885496 C10.9001075,4.64885496 10.0291846,4.78244141 9.23905724,5.04961832 C8.44892983,5.31679523 7.77553589,5.69083729 7.21885522,6.17175573 C6.66217455,6.65267416 6.23569172,7.18256708 5.93939394,7.76145038 C5.64309616,8.34033368 5.49494949,8.94147271 5.49494949,9.5648855 C5.49494949,10.7760875 5.95734667,11.7067398 6.88215488,12.3568702 C7.8069631,13.0070007 8.9472435,13.5680638 10.3030303,14.0400763 C11.6588171,14.5120889 13.1402838,14.9796415 14.7474747,15.4427481 C16.3546657,15.9058547 17.8361324,16.5292582 19.1919192,17.3129771 C20.547706,18.096696 21.6879864,19.1253117 22.6127946,20.398855 C23.5376028,21.6723982 24,23.3511346 24,25.4351145 C24,26.6819401 23.7126853,27.8753124 23.1380471,29.0152672 C22.563409,30.155222 21.750847,31.1749319 20.7003367,32.0744275 C19.6498264,32.9739231 18.3793565,33.6863841 16.8888889,34.2118321 C15.3984213,34.73728 13.7194257,35 11.8518519,35 C9.98427798,35 8.3232396,34.73728 6.86868687,34.2118321 C5.41413414,33.6863841 4.1706,32.9561115 3.13804714,32.0209924 C2.10549428,31.0858732 1.32435731,29.963747 0.794612795,28.6545802 C0.264868283,27.3454133 0,25.9071325 0,24.3396947 L5.22558923,24.3396947 C5.22558923,26.2811802 5.77777226,27.7684427 6.88215488,28.8015267 C7.98653751,29.8346108 9.6430866,30.351145 11.8518519,30.351145 C14.2042766,30.351145 15.941633,29.8791396 17.0639731,28.9351145 C18.1863131,27.9910894 18.7474747,26.8244344 18.7474747,25.4351145 C18.7474747,24.1526653 18.2895669,23.1463141 17.3737374,22.4160305 C16.4579079,21.685747 15.3176275,21.0757022 13.952862,20.5858779 C12.5880964,20.0960535 11.1066298,19.6151423 9.50841751,19.1431298 C7.91020525,18.6711172 6.42873859,18.0610724 5.06397306,17.3129771 C3.69920754,16.5648818 2.55892714,15.5897007 1.64309764,14.3874046 C0.727268148,13.1851085 0.269360269,11.5776182 0.269360269,9.5648855 C0.269360269,8.31805992 0.543207138,7.12023475 1.09090909,5.97137405 C1.63861104,4.82251334 2.4287266,3.80280344 3.46127946,2.91221374 C4.49383232,2.02162405 5.71940929,1.31361586 7.13804714,0.788167939 C8.55668498,0.262720019 10.1279375,0 11.8518519,0 Z M43.693288,0 C45.6145664,0 47.4134722,0.316154599 49.0900595,0.948473282 C50.7666467,1.58079197 52.2438339,2.44465101 53.5216653,3.54007634 C54.7994966,4.63550166 55.8869964,5.9134787 56.7841971,7.3740458 C57.6813979,8.8346129 58.3293665,10.3842157 58.7281223,12.0229008 L53.1546304,12.0229008 C52.8646261,11.0076285 52.4477512,10.050259 51.9039932,9.15076336 C51.3602352,8.25126777 50.6896103,7.46756059 49.8920986,6.79961832 C49.0945868,6.13167605 48.1792745,5.60623601 47.1461342,5.22328244 C46.112994,4.84032887 44.9620568,4.64885496 43.693288,4.64885496 C42.2432666,4.64885496 40.8340482,4.96500956 39.4655905,5.59732824 C38.0971328,6.22964693 36.8827581,7.12022326 35.8224299,8.26908397 C34.7621018,9.41794468 33.9056957,10.7805265 33.2531861,12.3568702 C32.6006764,13.933214 32.2744265,15.6475734 32.2744265,17.5 C32.2744265,19.3524266 32.6006764,21.0623331 33.2531861,22.629771 C33.9056957,24.1972089 34.7621018,25.5553378 35.8224299,26.7041985 C36.8827581,27.8530592 38.0971328,28.7480884 39.4655905,29.389313 C40.8340482,30.0305376 42.2432666,30.351145 43.693288,30.351145 C45.0345578,30.351145 46.2444013,30.1596711 47.3228547,29.7767176 C48.4013081,29.393764 49.3483392,28.8638711 50.1639762,28.1870229 C50.9796133,27.5101747 51.6547693,26.7264676 52.1894647,25.8358779 C52.7241601,24.9452882 53.1365038,23.9923715 53.4265081,22.9770992 L59,22.9770992 C58.5831188,24.6157843 57.930619,26.1653871 57.0424809,27.6259542 C56.1543428,29.0865213 55.0532493,30.3644983 53.7391674,31.4599237 C52.4250855,32.555349 50.9252421,33.419208 49.2395922,34.0515267 C47.5539423,34.6838454 45.7051927,35 43.693288,35 C41.4638801,35 39.3387244,34.5547118 37.317757,33.6641221 C35.2967897,32.7735324 33.5250713,31.5356313 32.0025489,29.9503817 C30.4800264,28.365132 29.2656517,26.5127332 28.3593883,24.3931298 C27.4531249,22.2735263 27,19.9758394 27,17.5 C27,15.0597842 27.4531249,12.7710031 28.3593883,10.6335878 C29.2656517,8.49617252 30.4800264,6.63486798 32.0025489,5.04961832 C33.5250713,3.46436866 35.2967897,2.22646756 37.317757,1.33587786 C39.3387244,0.445288168 41.4638801,0 43.693288,0 Z M121.748657,0 C123.180816,0 124.536872,0.275837035 125.816864,0.82751938 C127.096856,1.37920172 128.202287,2.12984021 129.13319,3.07945736 C130.064093,4.02907452 130.807015,5.15051033 131.361976,6.44379845 C131.916938,7.73708657 132.194415,9.10722791 132.194415,10.5542636 C132.194415,12.5982014 131.791626,14.2577456 130.986037,15.5329457 C130.180447,16.8081459 129.294312,17.8165338 128.327605,18.5581395 C127.19978,19.4444489 125.919807,20.1136928 124.487648,20.5658915 L133,35 L127.226638,35 L119.251343,21.1085271 L113.209452,21.1085271 L113.209452,35 L108,35 L108,15.999 L121.608329,16 C122.31927,16 122.989185,15.8524405 123.618095,15.5573171 C124.247004,15.2621936 124.802988,14.8687016 125.286063,14.3768293 C125.769139,13.8849569 126.161062,13.3081334 126.461845,12.6463415 C126.762627,11.9845495 126.913016,11.2691095 126.913016,10.5 C126.913016,9.73089046 126.762627,9.01545046 126.461845,8.35365854 C126.161062,7.69186661 125.769139,7.11504311 125.286063,6.62317073 C124.802988,6.13129835 124.247004,5.73780635 123.618095,5.44268293 C122.989185,5.1475595 122.31927,5 121.608329,5 L108,4.999 L108,15.999 L102.595476,16 L102.595476,5 L108,4.999 L108,0 L121.748657,0 Z M162.471264,0 L162.471264,4.99224806 L145.128736,4.99224806 L145.128736,14.4341085 L161.096552,14.4341085 L161.096552,19.4534884 L145.128736,19.4534884 L145.128736,30.0077519 L163,30.0077519 L163,35 L140,35 L140,0 L162.471264,0 Z M83.5,5 C85.0873095,5 86.6349131,5.30751598 88.1428571,5.92255717 C89.6508012,6.53759836 90.980153,7.40384057 92.1309524,8.52130977 C93.2817518,9.63877898 94.2142821,10.9641295 94.9285714,12.4974012 C95.6428607,14.0306729 96,15.6981892 96,17.5 C96,19.3018108 95.6428607,20.9649958 94.9285714,22.489605 C94.2142821,24.0142141 93.2817518,25.3352335 92.1309524,26.4527027 C90.980153,27.5701719 89.6508012,28.4407453 88.1428571,29.0644491 C86.6349131,29.6881528 85.0873095,30 83.5,30 C81.9126905,30 80.3700472,29.6881528 78.8720238,29.0644491 C77.3740004,28.4407453 76.0446487,27.5701719 74.8839286,26.4527027 C73.7232085,25.3352335 72.7857179,24.0142141 72.0714286,22.489605 C71.3571393,20.9649958 71,19.3018108 71,17.5 C71,15.6808641 71.3571393,14.0090166 72.0714286,12.4844075 C72.7857179,10.9597983 73.7232085,9.63877898 74.8839286,8.52130977 C76.0446487,7.40384057 77.3740004,6.53759836 78.8720238,5.92255717 C80.3700472,5.30751598 81.9126905,5 83.5,5 Z" id="Combined-Shape"></path>
            </g>
        </g>
    </g>
</svg>