<?xml version="1.0" encoding="UTF-8"?>
<svg width="24px" height="24px" viewBox="0 0 24 24" version="1.1" xmlns="http://www.w3.org/2000/svg" xmlns:xlink="http://www.w3.org/1999/xlink">
    <title>warn1</title>
    <g id="warn1" stroke="none" stroke-width="1" fill="none" fill-rule="evenodd">
        <circle id="Oval" stroke="#FFBE40" stroke-width="1.5" cx="12" cy="12" r="11.25"></circle>
        <path d="M11.6953125,14.796875 C12.203125,14.796875 12.4375,14.46875 12.4765625,13.96875 C12.515625,13.203125 12.78125,12.8046875 13.7890625,12.2109375 C14.8203125,11.59375 15.4296875,10.765625 15.4296875,9.5546875 C15.4296875,7.828125 14.015625,6.6328125 11.9765625,6.6328125 C10.4140625,6.6328125 9.2265625,7.2890625 8.75,8.3671875 C8.609375,8.671875 8.5390625,8.9453125 8.5390625,9.28125 C8.5390625,9.7578125 8.8125,10.046875 9.296875,10.046875 C9.6875,10.046875 9.9296875,9.875 10.0859375,9.390625 C10.3359375,8.5390625 10.9609375,8.0703125 11.90625,8.0703125 C12.9453125,8.0703125 13.65625,8.703125 13.65625,9.625 C13.65625,10.390625 13.3203125,10.859375 12.375,11.4296875 C11.359375,12.0390625 10.875,12.703125 10.875,13.703125 L10.875,13.8828125 C10.875,14.3984375 11.1484375,14.796875 11.6953125,14.796875 Z M11.6953125,18.1171875 C12.28125,18.1171875 12.7265625,17.6796875 12.7265625,17.109375 C12.7265625,16.5390625 12.28125,16.1015625 11.6953125,16.1015625 C11.125,16.1015625 10.671875,16.5390625 10.671875,17.109375 C10.671875,17.6796875 11.125,18.1171875 11.6953125,18.1171875 Z" id="?" fill="#FFBE40" fill-rule="nonzero"></path>
    </g>
</svg>