<?xml version="1.0" encoding="UTF-8"?>
<svg width="24px" height="24px" viewBox="0 0 24 24" version="1.1" xmlns="http://www.w3.org/2000/svg" xmlns:xlink="http://www.w3.org/1999/xlink">
    <title>warn2</title>
    <g id="warn2" stroke="none" stroke-width="1" fill="none" fill-rule="evenodd">
        <circle id="Oval" stroke="#F28F3B" stroke-width="1.5" cx="12" cy="12" r="11.25"></circle>
        <path d="M11.9960938,14.3828125 C12.4804688,14.3828125 12.7460938,14.078125 12.7617188,13.5859375 L12.8554688,7.5234375 L12.8554688,7.4375 L12.8554688,7.4375 C12.8554688,6.9140625 12.5039062,6.578125 12.0039062,6.578125 C11.4960938,6.578125 11.1445312,6.9140625 11.1445312,7.4375 L11.1445312,7.5234375 L11.1445312,7.5234375 L11.2382812,13.5859375 C11.2539062,14.078125 11.5195312,14.3828125 11.9960938,14.3828125 Z M11.9960938,18.1171875 C12.5820312,18.1171875 13.0273438,17.6796875 13.0273438,17.109375 C13.0273438,16.5390625 12.5820312,16.1015625 11.9960938,16.1015625 C11.4257812,16.1015625 10.9726562,16.5390625 10.9726562,17.109375 C10.9726562,17.6796875 11.4257812,18.1171875 11.9960938,18.1171875 Z" id="!" fill="#F28F3B" fill-rule="nonzero"></path>
    </g>
</svg>