<?xml version="1.0" encoding="UTF-8"?>
<svg width="24px" height="24px" viewBox="0 0 24 24" version="1.1" xmlns="http://www.w3.org/2000/svg" xmlns:xlink="http://www.w3.org/1999/xlink">
    <title>warn3</title>
    <g id="warn3" stroke="none" stroke-width="1" fill="none" fill-rule="evenodd">
        <circle id="Oval" stroke="#CA3200" stroke-width="1.5" cx="12" cy="12" r="11.25"></circle>
        <path d="M9.71875,14.3828125 C10.203125,14.3828125 10.46875,14.078125 10.484375,13.5859375 L10.578125,7.5234375 L10.578125,7.4375 L10.578125,7.4375 C10.578125,6.9140625 10.2265625,6.578125 9.7265625,6.578125 C9.21875,6.578125 8.8671875,6.9140625 8.8671875,7.4375 L8.8671875,7.5234375 L8.8671875,7.5234375 L8.9609375,13.5859375 C8.9765625,14.078125 9.2421875,14.3828125 9.71875,14.3828125 Z M9.71875,18.1171875 C10.3046875,18.1171875 10.75,17.6796875 10.75,17.109375 C10.75,16.5390625 10.3046875,16.1015625 9.71875,16.1015625 C9.1484375,16.1015625 8.6953125,16.5390625 8.6953125,17.109375 C8.6953125,17.6796875 9.1484375,18.1171875 9.71875,18.1171875 Z M14.2734375,14.3828125 C14.7578125,14.3828125 15.0234375,14.078125 15.0390625,13.5859375 L15.1328125,7.5234375 L15.1328125,7.4375 L15.1328125,7.4375 C15.1328125,6.9140625 14.78125,6.578125 14.28125,6.578125 C13.7734375,6.578125 13.421875,6.9140625 13.421875,7.4375 L13.421875,7.5234375 L13.421875,7.5234375 L13.515625,13.5859375 C13.53125,14.078125 13.796875,14.3828125 14.2734375,14.3828125 Z M14.2734375,18.1171875 C14.859375,18.1171875 15.3046875,17.6796875 15.3046875,17.109375 C15.3046875,16.5390625 14.859375,16.1015625 14.2734375,16.1015625 C13.703125,16.1015625 13.25,16.5390625 13.25,17.109375 C13.25,17.6796875 13.703125,18.1171875 14.2734375,18.1171875 Z" id="!!" fill="#CA3200" fill-rule="nonzero"></path>
    </g>
</svg>